# xmcd
#
# Track frame offsets:
#	150
#	15255
#	30449
#	46956
#	59702
#	74396
#	92270
#	107814
#	122334
#	136768
#	152308
#	167744
#	183719
#	198734
#
# Disc length: 2855
#
# Revision: 2
# Processed by: cddbd v1.5.1PL0 Copyright (c) Steve Scherf et al.
# Submitted via: audiograbber 1.83.01
# Normalized: r1:DSETVAR1
#
DISCID=af0b250e
DTITLE=Various Artist - Goldene Schlagerparade 6/2002
DYEAR=2002
DGENRE=Schlager
TTITLE0=Andy Borg - Tausche Alltagsgrau gegen Himmelblau
TTITLE1=Nicole - Sommer Sommer
TTITLE2=Patrick Lindner - Spiel den Sirtaki noch mal
TTITLE3=Francine Jordi - Du, für immer du
TTITLE4=Hansi Hinterseer - Die Sommernächte  und du
TTITLE5=Die Seer - Junischnee
TTITLE6=Olaf Berger - Ich denk immer noch an dich
TTITLE7=G G Anderson - Hey du da
TTITLE8=Chantal - Du hast mein Herz entführt
TTITLE9=Surfer - Surfin' In  Your Feelings
TTITLE10=Edina Pop - Gefühle die unsterblich sind
TTITLE11=Andreas Rauch - Anna Marie  Ich vermiss Dich so
TTITLE12=Andrea Jürgens - Vaya Vamos a la fiesta
TTITLE13=Nik P and Refex - Holiday
EXTD=
EXTT0=
EXTT1=
EXTT2=
EXTT3=
EXTT4=
EXTT5=
EXTT6=
EXTT7=
EXTT8=
EXTT9=
EXTT10=
EXTT11=
EXTT12=
EXTT13=
PLAYORDER=
